<?xml version="1.0" encoding="utf-8"?>
<!-- Generator: Adobe Illustrator 25.0.1, SVG Export Plug-In . SVG Version: 6.00 Build 0)  -->
<svg version="1.1" id="Laag_1" xmlns="http://www.w3.org/2000/svg" xmlns:xlink="http://www.w3.org/1999/xlink" x="0px" y="0px"
	 viewBox="0 0 32 32" style="enable-background:new 0 0 32 32;" xml:space="preserve">
<style type="text/css">
	.st0{fill:#212427;}
</style>
<g>
	<path class="st0" d="M30.1,32.1c-0.2,0-0.4,0-0.6,0c-0.5-0.2-0.9-0.6-1.3-1c-2.3-2.4-4.7-4.8-7-7.3c-0.1-0.1-0.1-0.2-0.2-0.3
		c-0.1,0.1-0.2,0.1-0.2,0.2c-2.1,1.4-4.5,2.2-7.1,2.2c-2.7,0-5.2-0.7-7.5-2.3c-2-1.4-3.5-3.2-4.5-5.4c-1.1-2.3-1.4-4.8-1-7.3
		c0.4-2.7,1.6-5,3.4-6.9c1.9-2,4.2-3.2,6.8-3.7c0.5-0.1,1.1-0.2,1.6-0.2c0.6,0,1.1,0,1.7,0c0.3,0,0.6,0.1,0.9,0.1
		c2.9,0.4,5.4,1.7,7.5,3.7c2,2.1,3.3,4.5,3.6,7.4c0.3,2.5-0.1,5-1.2,7.3c-0.5,0.9-1.1,1.8-1.7,2.8c0.2,0.2,0.6,0.4,0.8,0.7
		c2.2,2.3,4.4,4.6,6.7,6.9c0.5,0.5,0.7,1.1,0.5,1.9C31.2,31.6,30.7,31.9,30.1,32.1z M13.5,3.4C8.3,3.4,4,7.7,4,13
		c0,5.3,4.3,9.6,9.6,9.6c5.3,0,9.5-4.3,9.5-9.5C23.1,7.7,18.8,3.4,13.5,3.4z"/>
</g>
</svg>
