<?xml version="1.0" encoding="utf-8"?>
<svg version="1.1" id="Laag_1" xmlns="http://www.w3.org/2000/svg" xmlns:xlink="http://www.w3.org/1999/xlink" x="0px" y="0px"
	 viewBox="0 0 32 32" style="enable-background:new 0 0 32 32;" xml:space="preserve" fill="current-color">
	<g>
		<path class="st0" d="M16,31.1c-8.3,0-15-6.8-15-15.2c0-8.2,6.8-14.9,15-14.8c8.3,0,15,6.8,15,15.1C31,24.4,24.3,31.1,16,31.1z
			M16,3.1c-7.2,0-13,5.8-13,13c0,7.1,5.8,13,12.9,13c7.3,0,13.1-5.8,13.1-13C29.1,8.9,23.2,3.1,16,3.1z"/>
		<path class="st0" d="M22.3,7.8c1.4,0,2.3,1.4,1.8,2.8c-0.9,2.4-1.7,4.8-2.6,7.2c-0.1,0.3-0.2,0.6-0.3,1c-0.4,1.2-1.2,2-2.4,2.4
			c-2.7,1-5.4,2-8.2,2.9c-0.8,0.3-1.6,0.2-2.2-0.5c-0.6-0.6-0.7-1.4-0.4-2.2c1-2.7,1.9-5.4,2.9-8.1c0.4-1.2,1.3-2.1,2.5-2.5
			c2.7-1,5.3-1.9,8-2.9C21.7,7.9,22,7.9,22.3,7.8z M18.1,16.1c0-1.1-0.9-2-2-2c-1.1,0-2,0.9-2,2c0,1.1,0.9,2,2,2
			C17.2,18.1,18.1,17.2,18.1,16.1z"/>
	</g>
</svg>
