<?xml version="1.0" encoding="utf-8"?>
<!-- Generator: Adobe Illustrator 25.0.1, SVG Export Plug-In . SVG Version: 6.00 Build 0)  -->
<svg version="1.1" id="Laag_1" xmlns="http://www.w3.org/2000/svg" xmlns:xlink="http://www.w3.org/1999/xlink" x="0px" y="0px"
	 viewBox="0 0 32 32" style="enable-background:new 0 0 32 32;" xml:space="preserve">
<style type="text/css">
	.st0{fill:#FFFFFF;}
</style>
<g>
	<path class="st0" d="M3.1,16.1c0-1.6,1.3-3,3-3c1.7,0,3,1.3,3,3c0,1.7-1.3,3-3,3C4.4,19.1,3.1,17.7,3.1,16.1z"/>
	<path class="st0" d="M13.1,16.1c0-1.6,1.4-3,3-3c1.6,0,3,1.4,3,3c0,1.6-1.4,3-3,3C14.4,19.1,13.1,17.7,13.1,16.1z"/>
	<path class="st0" d="M26.1,13.1c1.6,0,3,1.4,3,3c0,1.6-1.4,3-3,3c-1.6,0-3-1.4-3-3C23.1,14.4,24.4,13.1,26.1,13.1z"/>
</g>
</svg>
