<?xml version="1.0" encoding="utf-8"?>
<!-- Generator: Adobe Illustrator 25.0.1, SVG Export Plug-In . SVG Version: 6.00 Build 0)  -->
<svg version="1.1" id="Laag_1" xmlns="http://www.w3.org/2000/svg" xmlns:xlink="http://www.w3.org/1999/xlink" x="0px" y="0px"
	 viewBox="0 0 32 32" style="enable-background:new 0 0 32 32;" xml:space="preserve">
<style type="text/css">
	.st0{fill:#FFFFFF;}
</style>
<g>
	<path class="st0" d="M19.4,0.1c2,0.9,4,1.7,6,2.6c1.1,0.5,2.2,1,3.4,1.4c0.4,0.2,0.5,0.4,0.5,0.8c0,1,0,2,0,3
		c0,1.6-1.5,2.5-2.9,1.8c-3.3-1.6-6.6-3.3-9.9-5c-0.5-0.3-0.6-0.7-0.2-1.1c0.8-1,1.7-2.1,2.5-3.1c0.1-0.1,0.3-0.3,0.4-0.4
		C19.1,0.1,19.2,0.1,19.4,0.1z"/>
	<path class="st0" d="M8,32.1c-0.5-0.1-1-0.2-1.4-0.4c-2.7-1.2-3.6-4.7-1.7-7.1c0.1-0.1,0.1-0.2,0.2-0.2c0.2,0.4,0.4,0.8,0.7,1.2
		c1.3,1.7,3.9,2.2,5.7,1.2c0.5-0.3,0.9-0.6,1.5-0.9c0.1,0.4,0.2,0.8,0.3,1.2c0.2,2.5-1.5,4.7-3.9,5.1c-0.1,0-0.1,0-0.2,0.1
		C8.7,32.1,8.4,32.1,8,32.1z"/>
	<path class="st0" d="M13.8,14.7c-0.8-0.3-1.6-0.6-2.4-0.9c-0.8,0.8-1.9,1.4-3,2C8.7,16.3,9,17,9.3,17.6c-0.5,0.3-1,0.6-1.5,0.9
		c-0.4,0.2-0.8,0.4-1.2,0.7c-0.6,0.4-1.1,1-1.4,1.7c0,0-0.1,0-0.1,0c-0.7-1.3-1.4-2.6-2-4c-0.5-1-0.4-2,0.1-2.9
		c0.9-1.6,1.9-3.2,2.9-4.8c0.4-0.7,1-1.1,1.7-1.4C10,7,12.1,6.2,14.2,5.4c0.1-0.1,0.4-0.1,0.5,0c3.6,1.8,7.2,3.6,10.8,5.4
		c0.1,0,0.1,0.1,0.2,0.1c0,0.1,0,0.1-0.1,0.2c-1.1,2.5-2.4,4.9-3.9,7.1c-1.4,2-3.2,3.5-5.5,4.3c-1,0.4-1.8,0.9-2.7,1.4
		c-0.9,0.5-1.7,1-2.6,1.5c-1.9,1.1-4.3,0-4.7-2.2C6,22,6.6,20.8,7.6,20.1c1.4-0.8,2.8-1.7,4.2-2.5c0.1,0,0.1-0.1,0.2-0.2
		C12.5,16.4,13.1,15.6,13.8,14.7C13.8,14.7,13.8,14.7,13.8,14.7z"/>
</g>
</svg>
