<?xml version="1.0" encoding="utf-8"?>
<!-- Generator: Adobe Illustrator 25.0.1, SVG Export Plug-In . SVG Version: 6.00 Build 0)  -->
<svg version="1.1" id="Laag_1" xmlns="http://www.w3.org/2000/svg" xmlns:xlink="http://www.w3.org/1999/xlink" x="0px" y="0px"
	 viewBox="0 0 32 32" style="enable-background:new 0 0 32 32;" xml:space="preserve">
<style type="text/css">
	.st0{fill:#212427;}
</style>
<g>
	<path class="st0" d="M0.1,16.5c0-0.3,0-0.6,0-0.9c0.2-0.9,0.8-1.6,1.4-2.2c4-3.9,7.9-7.9,11.9-11.9c0.7-0.7,1.3-1.3,2.3-1.5
		c0.3,0,0.6,0,0.9,0c0.9,0.2,1.6,0.8,2.2,1.4c4,4,7.9,7.9,11.9,11.9c0.7,0.7,1.3,1.3,1.4,2.3c0,0.2,0,0.5,0,0.8c0,0,0,0.1-0.1,0.1
		C31.7,18,30.6,19,29.1,19c-0.2,0-0.3,0-0.5,0c0,0.2,0,0.3,0,0.4c0,3.1,0,6.2,0,9.3c0,1.5-1,2.8-2.4,3.2C26,32,25.8,32,25.6,32.1
		c-1.9,0-3.8,0-5.8,0c-0.6-0.2-0.7-0.6-0.7-1.2c0-2.4,0-4.8,0-7.1c0-1.1-0.6-1.7-1.7-1.7c-0.9,0-1.8,0-2.7,0c-1.2,0-1.8,0.6-1.8,1.8
		c0,2.4,0,4.7,0,7.1c0,0.6-0.2,1-0.7,1.2c-1.9,0-3.8,0-5.8,0c0,0-0.1,0-0.1,0c-1.5-0.2-3-1.6-2.9-3.6c0-3,0-6,0-9c0-0.1,0-0.2,0-0.4
		c-0.2,0-0.4,0-0.6,0c-1.1-0.1-2-0.6-2.5-1.6C0.2,17.1,0.2,16.8,0.1,16.5z"/>
</g>
</svg>
