<?xml version="1.0" encoding="utf-8"?>
<!-- Generator: Adobe Illustrator 25.0.1, SVG Export Plug-In . SVG Version: 6.00 Build 0)  -->
<svg version="1.1" id="Laag_1" xmlns="http://www.w3.org/2000/svg" xmlns:xlink="http://www.w3.org/1999/xlink" x="0px" y="0px"
	 viewBox="0 0 32 32" style="enable-background:new 0 0 32 32;" xml:space="preserve">
<style type="text/css">
	.st0{fill:#FFFFFF;}
</style>
<g>
	<path class="st0" d="M32.1,10.5c-0.1,0.6-0.2,1.2-0.4,1.8c-0.4,1.3-1.1,2.3-2.1,3.2c-1-1-2.1-1.3-3.4-1c-1.3,0.3-2.1,1.2-2.6,2.4
		c-1.7-0.5-3.2-0.2-4.2,1.3c-0.9,1.3-0.9,2.7-0.1,4.1c-0.4,0.3-0.8,0.5-1.1,0.8c-1.1,1-1.5,2.7-0.9,4c0.1,0.2,0.1,0.3-0.1,0.4
		c-0.7,0.6-1.3,1.3-1.9,1.9c-0.6,0.6-1.4,0.6-2,0.1c-0.6-0.6-0.6-1.4,0.1-2c0.6-0.6,1.3-1.3,1.9-1.9c0.6-0.6,0.3-1.6-0.5-1.8
		c-0.4-0.1-0.7,0-1,0.3c-0.6,0.6-1.2,1.2-1.9,1.9c-0.6,0.6-1.4,0.6-2,0.1c-0.6-0.6-0.5-1.4,0.1-2c0.6-0.6,1.2-1.2,1.8-1.8
		c0.5-0.5,0.5-1.1,0.1-1.6c-0.4-0.4-1.1-0.4-1.6,0.1c-0.7,0.6-1.3,1.3-1.9,1.9c-0.5,0.5-1.3,0.6-1.8,0.1c-0.5-0.5-0.4-1.2,0.1-1.8
		c2.3-2.3,4.7-4.7,7-7c0.2-0.2,0.3-0.2,0.5,0c0.3,0.4,0.7,0.7,1,1c1.1,1.1,2.9,1.4,4.4,0.7c1.4-0.7,2.3-2.3,2-3.9
		c-0.1-0.9-0.5-1.6-1.1-2.2c-1.1-1-2.1-2-3.1-3c-0.1-0.1-0.2-0.1-0.3-0.2c1.1-1,2-2.2,3.3-3c4.6-2.8,10.7,0,11.6,5.3
		C32,8.8,32,9,32.1,9.2C32.1,9.6,32.1,10.1,32.1,10.5z"/>
	<path class="st0" d="M0.1,9.1C0.2,8.6,0.3,8,0.4,7.5c1.6-5,8-6.6,11.8-3c2.3,2.1,4.5,4.3,6.7,6.5c1,1,0.6,2.5-0.6,2.9
		c-0.6,0.2-1.2,0.1-1.6-0.4c-0.4-0.4-0.8-0.8-1.2-1.1c-1-0.9-2.3-0.9-3.3,0c-2,2-4,4-6,6c-0.1,0.1-0.1,0.2-0.2,0.3
		c-0.5-0.5-1-0.9-1.5-1.4c-1-0.9-2-1.8-2.9-2.8c-1-1-1.5-2.3-1.6-3.7c0-0.1,0-0.2-0.1-0.2C0.1,10,0.1,9.6,0.1,9.1z"/>
	<path class="st0" d="M25.4,24.8c-0.4,0-0.7-0.1-1-0.4c-1.1-1.1-2.2-2.1-3.2-3.2c-0.5-0.5-0.5-1.4,0-1.9c0.5-0.6,1.4-0.6,2-0.1
		c1.1,1.1,2.2,2.2,3.3,3.3c0.4,0.4,0.4,1,0.2,1.5C26.5,24.5,26,24.8,25.4,24.8z"/>
	<path class="st0" d="M25.6,17.9c0-0.6,0.3-1.1,0.9-1.3c0.6-0.2,1.1-0.2,1.5,0.3c0.7,0.6,1.3,1.3,2,2c0.6,0.6,0.5,1.4,0,2
		c-0.6,0.6-1.4,0.6-2,0c-0.7-0.7-1.3-1.3-2-2C25.7,18.6,25.6,18.3,25.6,17.9z"/>
	<path class="st0" d="M21.9,28.3c-0.4,0-0.8-0.1-1-0.4c-0.4-0.4-0.9-0.8-1.3-1.3c-0.5-0.6-0.5-1.4,0-2c0.6-0.6,1.4-0.6,2-0.1
		c0.5,0.4,0.9,0.9,1.3,1.3c0.4,0.4,0.5,1,0.2,1.5C22.9,28,22.4,28.3,21.9,28.3z"/>
</g>
</svg>
