<?xml version="1.0" encoding="utf-8"?>
<!-- Generator: Adobe Illustrator 25.0.1, SVG Export Plug-In . SVG Version: 6.00 Build 0)  -->
	<svg version="1.1" id="Laag_1" xmlns="http://www.w3.org/2000/svg" xmlns:xlink="http://www.w3.org/1999/xlink" x="0px" y="0px"
		viewBox="0 0 32 32" style="enable-background:new 0 0 32 32;" xml:space="preserve" fill="#FFFFFF">

	<g>
		<path class="st0" d="M16.4,32.1c-0.2,0-0.4,0-0.6,0c0,0-0.1,0-0.1,0c-0.7-0.1-1.3-0.5-1.8-1c-0.5-0.6-0.6-1.3-0.6-2
			c0-3.1,0-6.1,0-9.2c0-0.7-0.2-0.8-0.8-0.8c-3.1,0-6.1,0-9.2,0c-1,0-1.9-0.3-2.5-1.2c-0.3-0.4-0.4-0.9-0.6-1.4c0-0.2,0-0.4,0-0.6
			c0,0,0-0.1,0-0.1c0.1-0.7,0.4-1.3,1-1.7c0.6-0.5,1.3-0.7,2.1-0.7c3.1,0,6.1,0,9.2,0c0.7,0,0.8-0.2,0.8-0.8c0-3.1,0-6.1,0-9.2
			c0-1,0.3-1.9,1.2-2.5c0.4-0.3,0.9-0.4,1.4-0.6c0.2,0,0.4,0,0.6,0c0,0,0.1,0,0.1,0c0.7,0.1,1.3,0.5,1.8,1c0.5,0.6,0.6,1.3,0.6,2
			c0,3.1,0,6.1,0,9.2c0,0.7,0.2,0.8,0.8,0.8c3.1,0,6.1,0,9.2,0c1,0,1.9,0.3,2.5,1.2c0.3,0.4,0.4,0.9,0.6,1.4c0,0.2,0,0.4,0,0.6
			c0,0,0,0.1,0,0.1c-0.1,0.7-0.4,1.3-1,1.7c-0.6,0.5-1.3,0.7-2.1,0.7c-3.1,0-6.1,0-9.2,0c-0.7,0-0.8,0.2-0.8,0.8c0,3.1,0,6.1,0,9.2
			c0,1-0.3,1.9-1.2,2.5C17.3,31.8,16.8,31.9,16.4,32.1z"/>
	</g>
</svg>
