<?xml version="1.0" encoding="utf-8"?>
<!-- Generator: Adobe Illustrator 25.0.1, SVG Export Plug-In . SVG Version: 6.00 Build 0)  -->
<svg version="1.1" id="Laag_1" xmlns="http://www.w3.org/2000/svg" xmlns:xlink="http://www.w3.org/1999/xlink" x="0px" y="0px"
	 viewBox="0 0 32 32" style="enable-background:new 0 0 32 32;" xml:space="preserve">
<style type="text/css">
	.st0{fill:#FFFFFF;}
</style>
<g>
	<path class="st0" d="M8.9,32.1c-0.6-0.1-1.1-0.4-1.4-0.9c-0.6-0.8-0.6-2,0-2.7c0.1-0.2,0.3-0.3,0.4-0.4c3.9-3.9,7.8-7.8,11.7-11.7
		c0.1-0.1,0.2-0.2,0.4-0.4c-0.1-0.1-0.2-0.1-0.3-0.2C15.6,11.9,11.7,7.9,7.7,4c-0.7-0.7-1-1.5-0.7-2.4c0.2-0.7,0.7-1.2,1.5-1.5
		c0.1,0,0.2-0.1,0.4-0.1c0.2,0,0.4,0,0.6,0c0.7,0.1,1.2,0.6,1.7,1c4.4,4.4,8.8,8.8,13.2,13.2c0.7,0.7,1,1.5,0.7,2.4
		c-0.1,0.3-0.3,0.7-0.6,0.9c-4.5,4.5-9.1,9.1-13.6,13.6c-0.4,0.4-0.8,0.6-1.3,0.7C9.3,32.1,9.1,32.1,8.9,32.1z"/>
</g>
</svg>
