<?xml version="1.0" encoding="utf-8"?>
<!-- Generator: Adobe Illustrator 25.0.1, SVG Export Plug-In . SVG Version: 6.00 Build 0)  -->
<svg version="1.1" id="Laag_1" xmlns="http://www.w3.org/2000/svg" xmlns:xlink="http://www.w3.org/1999/xlink" x="0px" y="0px"
	 viewBox="0 0 32 32" style="enable-background:new 0 0 32 32;" xml:space="preserve">
<style type="text/css">
	.st0{fill:#FFFFFF;}
</style>
<g>
	<path class="st0" d="M16.1,5.4c-3.9,0-7.9,0-11.8,0c-0.2,0-0.4,0-0.6-0.1c-0.6-0.2-1-0.8-1-1.5C2.8,3.3,3.4,2.8,4,2.7
		c0.1,0,0.2,0,0.3,0c7.8,0,15.7,0,23.5,0c0.2,0,0.5,0,0.7,0.1c0.6,0.2,1,0.8,0.9,1.5c-0.1,0.6-0.6,1.1-1.2,1.1c-0.1,0-0.3,0-0.4,0
		C23.9,5.4,20,5.4,16.1,5.4z"/>
	<path class="st0" d="M16.1,18.7c3.9,0,7.9,0,11.8,0c0.9,0,1.5,0.6,1.4,1.5c0,0.6-0.6,1.1-1.2,1.2c-0.1,0-0.3,0-0.4,0
		c-7.8,0-15.7,0-23.5,0c-0.2,0-0.4,0-0.6-0.1c-0.6-0.2-1-0.8-0.9-1.5c0.1-0.6,0.6-1.1,1.3-1.1c1.1,0,2.2,0,3.4,0
		C10.3,18.7,13.2,18.7,16.1,18.7z"/>
	<path class="st0" d="M12.1,13.4c-2.6,0-5.3,0-7.9,0c-0.9,0-1.5-0.6-1.4-1.5c0-0.6,0.6-1.1,1.2-1.2c0.1,0,0.2,0,0.4,0
		c5.2,0,10.4,0,15.6,0c0.2,0,0.4,0,0.6,0.1c0.6,0.2,1,0.8,0.9,1.5c-0.1,0.6-0.6,1.1-1.3,1.1c-1.5,0-2.9,0-4.4,0
		C14.5,13.4,13.3,13.4,12.1,13.4z"/>
	<path class="st0" d="M12.1,29.4c-2.6,0-5.2,0-7.8,0c-0.2,0-0.4,0-0.6-0.1c-0.6-0.2-1-0.8-0.9-1.5c0.1-0.6,0.6-1.1,1.3-1.1
		c0.1,0,0.2,0,0.3,0c5.2,0,10.4,0,15.6,0c0.2,0,0.4,0,0.6,0.1c0.6,0.2,1,0.8,0.9,1.5c-0.1,0.6-0.6,1.1-1.3,1.1c-1.3,0-2.7,0-4,0
		C14.8,29.4,13.4,29.4,12.1,29.4z"/>
</g>
</svg>
