<?xml version="1.0" encoding="utf-8"?>
<!-- Generator: Adobe Illustrator 25.0.1, SVG Export Plug-In . SVG Version: 6.00 Build 0)  -->
<svg version="1.1" id="Laag_1" xmlns="http://www.w3.org/2000/svg" xmlns:xlink="http://www.w3.org/1999/xlink" x="0px" y="0px"
	 viewBox="0 0 32 32" style="enable-background:new 0 0 32 32;" xml:space="preserve">
<style type="text/css">
	.st0{fill:#212427;}
</style>
<g>
	<path class="st0" d="M15.1,17c-0.9-0.1-1.9-0.2-2.8-0.2c-2.2-0.2-4.3-0.4-6.5-0.5c-0.6,0-1.2-0.1-1.7-0.1c-0.6,0-0.9-0.3-1-0.8
		c-0.1-0.5,0.2-0.9,0.7-1.1c4.4-2,8.9-4.1,13.3-6.1c3.5-1.6,7-3.2,10.4-4.8c0.7-0.3,1.4,0,1.5,0.6c0,0.2,0,0.5-0.1,0.8
		c-1.2,2.7-2.4,5.3-3.6,8c-2.4,5.2-4.8,10.5-7.2,15.7c-0.3,0.6-0.6,0.8-1.1,0.8c-0.5,0-0.9-0.4-0.9-0.9c-0.1-1.5-0.3-3-0.4-4.6
		c-0.2-2.1-0.3-4.2-0.5-6.3C15.2,17.2,15.1,17.1,15.1,17z"/>
</g>
</svg>
