<?xml version="1.0" encoding="utf-8"?>
<!-- Generator: Adobe Illustrator 25.0.1, SVG Export Plug-In . SVG Version: 6.00 Build 0)  -->
<svg version="1.1" id="Laag_1" xmlns="http://www.w3.org/2000/svg" xmlns:xlink="http://www.w3.org/1999/xlink" x="0px" y="0px"
	 viewBox="0 0 32 32" style="enable-background:new 0 0 32 32;" xml:space="preserve">
<style type="text/css">
	.st0{fill:#FFFFFF;}
</style>
<g>
	<path class="st0" d="M32.1,8.1c-0.1,0.5-0.2,1.1-0.4,1.6c-0.3,1.1-0.9,2.1-1.8,3c-2.3,2.3-4.7,4.7-7,7c-2.7,2.6-7.4,2.8-10.3-0.1
		c-0.8-0.8-0.9-2.1-0.1-3c0.7-0.8,2-0.9,2.9-0.2c0.5,0.4,0.9,0.7,1.5,0.9c1.1,0.3,2.2,0.1,3-0.7c0.7-0.6,1.4-1.3,2-2
		c1.6-1.6,3.2-3.2,4.8-4.8c1.5-1.6,1.2-4-0.6-5.1c-1.2-0.7-2.8-0.5-3.9,0.6c-1.3,1.2-2.5,2.5-3.8,3.8c-0.3,0.3-0.6,0.4-1.1,0.2
		c-1-0.4-2.1-0.6-3.3-0.6c-0.3,0-0.5-0.1-0.6-0.3c-0.1-0.3,0-0.5,0.2-0.6c1.9-1.9,3.8-3.9,5.8-5.7c1.1-1.1,2.5-1.7,4.1-1.9
		c0.1,0,0.2,0,0.2-0.1c0.4,0,0.9,0,1.3,0c0.1,0,0.2,0,0.3,0.1c3,0.5,5,2.1,6.1,4.9c0.2,0.6,0.3,1.3,0.4,1.9
		C32.1,7.3,32.1,7.7,32.1,8.1z"/>
	<path class="st0" d="M0.1,24c0.1-0.6,0.2-1.2,0.4-1.8c0.4-1.2,1-2.1,1.9-3C4.5,17,6.7,14.8,9,12.6c2.5-2.5,6.2-3,9.2-1.1
		c0.7,0.4,1.4,0.9,1.8,1.6c0.5,0.9,0.3,1.9-0.4,2.5c-0.8,0.7-1.9,0.7-2.7,0.1c-0.1-0.1-0.2-0.2-0.3-0.3c-1.2-1.1-3-1.1-4.3,0
		c-0.2,0.2-0.4,0.3-0.5,0.5c-2.1,2.1-4.2,4.2-6.3,6.3c-1.1,1.2-1.3,2.9-0.4,4.1c1.1,1.7,3.5,1.9,4.9,0.4c1.3-1.2,2.5-2.5,3.8-3.8
		c0.1-0.1,0.1-0.1,0.2-0.2c0.2-0.2,0.4-0.2,0.6-0.1c1.1,0.4,2.3,0.7,3.6,0.7c0.2,0,0.4,0.1,0.5,0.3c0.1,0.2,0,0.4-0.1,0.6
		c-0.3,0.3-0.6,0.6-0.9,0.9c-1.6,1.6-3.3,3.3-4.9,4.9c-1.1,1.1-2.5,1.7-4,1.9c-0.1,0-0.2,0-0.3,0.1c-0.4,0-0.8,0-1.2,0
		c-0.1,0-0.2,0-0.3-0.1c-2.9-0.5-5-2-6-4.8c-0.3-0.6-0.3-1.3-0.5-2C0.1,24.8,0.1,24.4,0.1,24z"/>
</g>
</svg>
