<?xml version="1.0" encoding="UTF-8" standalone="no"?>
<!-- Generator: Adobe Illustrator 25.0.1, SVG Export Plug-In . SVG Version: 6.00 Build 0)  -->

<svg
   version="1.1"
   id="Laag_1"
   x="0px"
   y="0px"
   viewBox="0 0 26.924143 26.9"
   xml:space="preserve"
   sodipodi:docname="5a7512a2c111a05587b317ca0026af73.svg"
   width="26.924143"
   height="26.9"
   xmlns:inkscape="http://www.inkscape.org/namespaces/inkscape"
   xmlns:sodipodi="http://sodipodi.sourceforge.net/DTD/sodipodi-0.dtd"
   xmlns="http://www.w3.org/2000/svg"
   xmlns:svg="http://www.w3.org/2000/svg"><defs
   id="defs13" /><sodipodi:namedview
   id="namedview11"
   pagecolor="#ffffff"
   bordercolor="#666666"
   borderopacity="1.0"
   inkscape:pageshadow="2"
   inkscape:pageopacity="0.0"
   inkscape:pagecheckerboard="0" />
<style
   type="text/css"
   id="style2">
	.st0{fill:#212427;}
</style>
<g
   id="g8"
   transform="translate(-2.5758564,-2.6)">
	<path
   class="st0"
   d="m 16,29.5 c -4.2,0 -8.4,0 -12.6,0 -0.7,0 -0.9,-0.2 -0.8,-0.9 0.1,-5.6 4,-10.4 9.5,-11.6 0.6,-0.1 1.3,-0.3 2,-0.3 2.1,0 4.2,-0.2 6.2,0.3 4.6,1.1 8.2,5 9,9.7 0.1,0.6 0.1,1.3 0.2,1.9 0,0.6 -0.2,0.9 -0.8,0.9 -4.3,0 -8.5,0 -12.7,0 z"
   id="path4" />
	<path
   class="st0"
   d="m 9.7,9 c 0,-3.6 2.9,-6.4 6.4,-6.4 3.5,0 6.4,2.9 6.4,6.4 0,3.5 -2.9,6.4 -6.4,6.4 -3.6,0 -6.4,-2.9 -6.4,-6.4 z"
   id="path6" />
</g>
</svg>
