<?xml version="1.0" encoding="utf-8"?>
<!-- Generator: Adobe Illustrator 25.0.1, SVG Export Plug-In . SVG Version: 6.00 Build 0)  -->
<svg version="1.1" id="Laag_1" xmlns="http://www.w3.org/2000/svg" xmlns:xlink="http://www.w3.org/1999/xlink" x="0px" y="0px"
	 viewBox="0 0 32 32" style="enable-background:new 0 0 32 32;" xml:space="preserve">
<style type="text/css">
	.st0{fill:#212427;}
</style>
<g>
	<path class="st0" d="M32.1,16.4c-0.2,0.5-0.3,0.9-0.7,1.3c-0.4,0.4-0.9,0.6-1.5,0.7c-0.2,0-0.4,0-0.5,0c-7.2,0-14.4,0-21.6,0
		c-0.1,0-0.2,0-0.5,0c0.1,0.1,0.2,0.1,0.3,0.1c0.6,0.3,1.1,0.6,1.6,1.1c2,2,4.1,4.1,6.1,6.1c0.7,0.7,1,1.5,0.7,2.5
		c-0.4,1.5-2.3,2-3.5,1.1c-0.2-0.1-0.3-0.3-0.5-0.4c-3.6-3.6-7.2-7.2-10.8-10.8c-0.5-0.5-1-1-1.1-1.7c0-0.2,0-0.4,0-0.6
		C0.2,15,0.6,14.5,1.1,14C4.8,10.4,8.4,6.8,12,3.1c0.8-0.8,1.7-1,2.6-0.6c1.4,0.6,1.8,2.4,0.8,3.5c-0.1,0.1-0.2,0.3-0.4,0.4
		c-1.7,1.7-3.4,3.4-5.1,5.1c-0.8,0.8-1.6,1.7-2.7,2.1c0,0,0,0.1,0,0.1c0.1,0,0.2,0,0.4,0c7.3,0,14.6,0,21.8,0c0.8,0,1.5,0.2,2,0.9
		c0.2,0.3,0.3,0.7,0.5,1.1C32.1,16,32.1,16.2,32.1,16.4z"/>
</g>
</svg>
