<?xml version="1.0" encoding="utf-8"?>
<!-- Generator: Adobe Illustrator 25.0.1, SVG Export Plug-In . SVG Version: 6.00 Build 0)  -->
<svg version="1.1" id="Laag_1" xmlns="http://www.w3.org/2000/svg" xmlns:xlink="http://www.w3.org/1999/xlink" x="0px" y="0px"
	 viewBox="0 0 32 32" style="enable-background:new 0 0 32 32;" xml:space="preserve">
<style type="text/css">
	.st0{fill:#FFFFFF;}
</style>
<g>
	<path class="st0" d="M2.7,16.1c0-2,0-4,0-5.9c0-1.4,0.3-2.7,1-3.9c1.1-2,2.8-3,5-3.3c0.5-0.1,1.1-0.1,1.6-0.1c3.9,0,7.7,0,11.6,0
		c1.3,0,2.6,0.3,3.8,0.9c2.1,1.1,3.2,2.8,3.5,5.1c0.1,0.5,0.1,1.1,0.1,1.6c0,3.9,0,7.7,0,11.6c0,1.2-0.2,2.3-0.7,3.3
		c-1,2.3-2.8,3.5-5.3,4c-0.5,0.1-1.1,0.1-1.6,0.1c-3.9,0-7.9,0-11.8,0c-1.3,0-2.6-0.3-3.8-1c-2.1-1.2-3.1-3.1-3.4-5.4
		c-0.1-0.6-0.1-1.2-0.1-1.8C2.7,19.5,2.7,17.8,2.7,16.1C2.7,16.1,2.7,16.1,2.7,16.1z M27.4,16.9c0-0.2,0-0.3,0-0.4c0-2,0-3.9,0-5.9
		c0-0.5,0-0.9-0.1-1.4c-0.3-1.9-1.2-3.4-3-4.1c-0.8-0.3-1.6-0.4-2.4-0.4c-3.9,0-7.7,0-11.6,0c-0.4,0-0.7,0-1.1,0.1
		c-1.8,0.3-3.3,1.1-4,2.9C4.9,8.4,4.8,9.2,4.8,9.9c0,3.6,0,7.2,0,10.8c0,0.5,0,1,0,1.5c0,0.7,0.2,1.4,0.5,2c0.1-0.1,0.3-0.2,0.4-0.3
		c1.5-1,3-2,4.5-3c0.7-0.5,1.5-0.6,2.4-0.5c0.6,0.1,1.1,0.5,1.6,0.9c0.5,0.4,1,0.7,1.6,0.7c0.9,0.1,1.7-0.1,2.4-0.7
		c1.7-1.5,3.5-3,5.2-4.5c0.7-0.6,1.4-0.9,2.3-0.8C26.2,16.1,26.8,16.4,27.4,16.9z"/>
	<path class="st0" d="M12,13.9c-1.8,0-3.2-1.4-3.2-3.2c0-1.8,1.4-3.2,3.2-3.1c1.7,0,3.2,1.4,3.1,3.2C15.2,12.5,13.8,13.9,12,13.9z"
		/>
</g>
</svg>
