<?xml version="1.0" encoding="utf-8"?>
<!-- Generator: Adobe Illustrator 25.0.1, SVG Export Plug-In . SVG Version: 6.00 Build 0)  -->
<svg version="1.1" id="Laag_1" xmlns="http://www.w3.org/2000/svg" xmlns:xlink="http://www.w3.org/1999/xlink" x="0px" y="0px"
	 viewBox="0 0 32 32" style="enable-background:new 0 0 32 32;" xml:space="preserve">
<style type="text/css">
	.st0{fill:#212427;}
</style>
<g>
	<path class="st0" d="M15.4,0.1c0.4,0,0.8,0,1.2,0c0.1,0,0.1,0,0.2,0c1.7,0.1,3.4,0.6,4.8,1.6c2.9,1.9,4.6,4.5,5,8
		c0.2,2.2-0.2,4.3-1.3,6.3c-2.9,5.2-5.7,10.4-8.6,15.6c-0.1,0.2-0.3,0.4-0.5,0.6c-0.1,0-0.2,0-0.4,0c-0.2-0.2-0.4-0.3-0.5-0.6
		C12.5,26.3,9.6,21.1,6.8,16c-1.3-2.3-1.7-4.8-1.2-7.3C6,6.6,7,4.8,8.5,3.3c1.3-1.3,2.9-2.3,4.7-2.8C13.9,0.3,14.7,0.2,15.4,0.1z
		 M16,5.4c-3,0-5.3,2.4-5.3,5.4c0,3,2.4,5.3,5.4,5.3c2.9,0,5.3-2.4,5.3-5.4C21.4,7.8,19,5.4,16,5.4z"/>
</g>
</svg>
