<?xml version="1.0" encoding="utf-8"?>
<!-- Generator: Adobe Illustrator 25.0.1, SVG Export Plug-In . SVG Version: 6.00 Build 0)  -->
<svg version="1.1" id="Laag_1" xmlns="http://www.w3.org/2000/svg" xmlns:xlink="http://www.w3.org/1999/xlink" x="0px" y="0px"
	 viewBox="0 0 32 32" style="enable-background:new 0 0 32 32;" xml:space="preserve">
<style type="text/css">
	.st0{fill:#212427;}
</style>
<g>
	<path class="st0" d="M0.1,7.2C0.1,7,0.2,6.7,0.3,6.4c3.2,3.3,6.4,6.5,9.5,9.7c-3.1,3.1-6.3,6.4-9.5,9.7c-0.1-0.3-0.2-0.6-0.3-0.9
		C0.1,19,0.1,13.1,0.1,7.2z"/>
	<path class="st0" d="M32.1,24.9c-0.1,0.3-0.2,0.5-0.3,0.9c-3.2-3.3-6.4-6.5-9.5-9.7c3.1-3.1,6.3-6.4,9.5-9.7
		C31.9,6.7,32,7,32.1,7.2C32.1,13.1,32.1,19,32.1,24.9z"/>
	<path class="st0" d="M1.7,5c0.5-0.1,0.9-0.2,1.4-0.2c6.8,0,13.7,0,20.5,0c1.8,0,3.7,0,5.5,0c0.4,0,0.9,0.1,1.3,0.2c0,0,0,0.1,0,0.1
		c-0.1,0.1-0.1,0.2-0.2,0.2c-4,4-8,8-12,11.9c-0.9,0.9-1.9,1.2-3.1,0.8c-0.4-0.1-0.8-0.4-1.1-0.7c-4.1-4-8.1-8.1-12.2-12.1
		c0,0-0.1-0.1-0.1-0.1C1.7,5.1,1.7,5,1.7,5z"/>
	<path class="st0" d="M20.8,17.3c3.2,3.3,6.4,6.5,9.6,9.8c-0.3,0.1-0.6,0.1-0.9,0.2c-0.1,0-0.2,0-0.4,0c-8.7,0-17.3,0-26,0
		c-0.5,0-0.9-0.1-1.4-0.2c3.2-3.3,6.4-6.5,9.6-9.8c0.1,0.1,0.2,0.2,0.3,0.3c0.5,0.5,1,1.1,1.6,1.5c1.9,1.5,4.5,1.3,6.2-0.4
		C19.9,18.3,20.3,17.8,20.8,17.3z"/>
</g>
</svg>
