<?xml version="1.0" encoding="utf-8"?>
<!-- Generator: Adobe Illustrator 25.0.1, SVG Export Plug-In . SVG Version: 6.00 Build 0)  -->
<svg version="1.1" id="Laag_1" xmlns="http://www.w3.org/2000/svg" xmlns:xlink="http://www.w3.org/1999/xlink" x="0px" y="0px"
	 viewBox="0 0 32 32" style="enable-background:new 0 0 32 32;" xml:space="preserve">
<style type="text/css">
	.st0{fill:#FFFFFF;}
</style>
<g>
	<path class="st0" d="M15.8,0.1c0.2,0,0.3,0,0.5,0c0,0,0.1,0,0.1,0.1c4.7,1.9,9.3,3.8,14,5.7C31,6.1,31.2,6.4,31.2,7
		c0,6,0,12,0,18.1c0,0.6-0.2,0.9-0.8,1.1c-3.6,1.5-7.2,3-10.8,4.5c-1.1,0.4-2.2,0.9-3.3,1.4c-0.2,0-0.3,0-0.5,0c0,0-0.1,0-0.1-0.1
		c-4.7-1.9-9.3-3.8-14-5.7c-0.6-0.2-0.8-0.5-0.8-1.2c0-6,0-12,0-18.1c0-0.6,0.2-0.9,0.8-1.1c3.5-1.4,7-2.9,10.5-4.3
		C13.4,1.1,14.6,0.6,15.8,0.1z M17.1,29.6c0.1-0.1,0.3-0.1,0.4-0.1c3.8-1.6,7.6-3.1,11.5-4.7c0.2-0.1,0.3-0.2,0.3-0.5
		c0-5.1,0-10.3,0-15.4c0-0.1,0-0.2,0-0.4c-0.1,0.1-0.3,0.1-0.4,0.1c-3.8,1.6-7.7,3.1-11.5,4.7c-0.2,0.1-0.3,0.2-0.3,0.5
		c0,5.2,0,10.3,0,15.5C17.1,29.3,17.1,29.4,17.1,29.6z M9.4,11.1c0,0.2,0,0.3,0,0.4c0,1.3,0,2.6,0,3.9c0,0.8-0.7,1.3-1.4,1
		c-0.4-0.2-0.6-0.5-0.6-1c0-1.6,0-3.2,0-4.8c0-0.2-0.1-0.3-0.3-0.4C6,9.7,4.8,9.2,3.6,8.7C3.4,8.7,3.2,8.6,3,8.5c0,0.1,0,0.2,0,0.3
		c0,5.2,0,10.4,0,15.6c0,0.2,0.1,0.3,0.2,0.3c3.7,1.5,7.4,3.1,11.2,4.6c0.2,0.1,0.5,0.2,0.7,0.3c0-0.1,0-0.1,0-0.1
		c0-5.3,0-10.5,0-15.8c0-0.2-0.1-0.2-0.2-0.3c-1.2-0.5-2.3-0.9-3.5-1.4C10.7,11.7,10.1,11.4,9.4,11.1z M10.9,9.5
		c0.1,0.1,0.2,0.1,0.3,0.2c1.5,0.6,3,1.2,4.5,1.8c0.3,0.1,0.5,0.1,0.8,0c3.6-1.5,7.2-2.9,10.7-4.4c0.1-0.1,0.3-0.1,0.5-0.2
		c-1.8-0.7-3.5-1.4-5.3-2.2c-0.2-0.1-0.4-0.1-0.6,0c-2.1,0.9-4.2,1.8-6.3,2.8C14,8.2,12.4,8.8,10.9,9.5z M19.5,3.6
		c-0.1-0.1-0.2-0.1-0.3-0.1c-0.9-0.4-1.9-0.8-2.8-1.2c-0.2-0.1-0.4-0.1-0.7,0C12.4,3.7,9,5.1,5.6,6.4C5.2,6.6,4.9,6.7,4.5,6.9
		C4.6,7,4.7,7,4.8,7.1C5.9,7.5,6.9,7.9,8,8.4c0.2,0.1,0.4,0.1,0.6,0c2-0.9,4-1.8,6-2.6C16.2,5,17.8,4.3,19.5,3.6z"/>
</g>
</svg>
