<?xml version="1.0" encoding="utf-8"?>
<!-- Generator: Adobe Illustrator 25.0.1, SVG Export Plug-In . SVG Version: 6.00 Build 0)  -->
<svg version="1.1" id="Laag_1" xmlns="http://www.w3.org/2000/svg" xmlns:xlink="http://www.w3.org/1999/xlink" x="0px" y="0px"
	 viewBox="0 0 32 32" style="enable-background:new 0 0 32 32;" xml:space="preserve">
<style type="text/css">
	.st0{fill:#212427;}
</style>
<g>
	<path class="st0" d="M32.1,8.9c0,5.9,0,11.7,0,17.6c-0.1,0.2-0.1,0.5-0.2,0.7c-0.5,0.9-1.3,1.3-2.3,1.3c-7.7,0-15.4,0-23.1,0
		c-1.3,0-2.6,0-3.9,0c-0.7,0-1.3-0.2-1.8-0.7c-0.4-0.4-0.6-0.8-0.7-1.3c0-5.9,0-11.7,0-17.6c0-0.1,0.1-0.2,0.1-0.3
		C0.4,7.8,1,7.3,1.8,7C2.1,7,2.5,7,2.8,6.9c0-0.2,0-0.4,0-0.6c0-0.6,0.4-1,0.9-1c1.1,0,2.3,0,3.4,0c0.6,0,0.9,0.4,0.9,0.9
		c0,0.2,0,0.4,0,0.6c0.1,0,0.2,0,0.3,0c0.7,0,1.4,0,2.2,0c0.2,0,0.3-0.1,0.4-0.2c0.5-0.8,1-1.6,1.5-2.5c0.2-0.4,0.6-0.6,1.1-0.6
		c1.7,0,3.4,0,5,0c0.5,0,0.8,0.2,1.1,0.6c0.5,0.8,1,1.6,1.4,2.4C21.2,6.9,21.3,7,21.6,7c2.6,0,5.3,0,7.9,0c0.7,0,1.3,0.2,1.8,0.7
		C31.7,8,31.9,8.4,32.1,8.9z M16,11.1c-3.7,0-6.7,3-6.6,6.7c0,3.7,3,6.6,6.6,6.6c3.7,0,6.7-3,6.6-6.7C22.7,14,19.7,11.1,16,11.1z
		 M26.8,11.8c0.5,0,1,0,1.4,0c0.5,0,0.9-0.4,0.9-0.9c0-0.5-0.3-0.9-0.9-0.9c-1,0-2,0-3,0c-0.5,0-0.9,0.5-0.9,0.9
		c0,0.5,0.4,0.9,0.9,0.9C25.9,11.8,26.3,11.8,26.8,11.8z"/>
	<path class="st0" d="M16.1,13.1c2.7,0.1,4.7,2.2,4.6,4.9c-0.1,2.4-2.3,4.5-4.7,4.4c-2.6-0.1-4.6-2.2-4.5-4.8
		C11.5,15.1,13.6,13,16.1,13.1z"/>
</g>
</svg>
