<?xml version="1.0" encoding="utf-8"?>
<!-- Generator: Adobe Illustrator 25.0.1, SVG Export Plug-In . SVG Version: 6.00 Build 0)  -->
<svg version="1.1" id="Laag_1" xmlns="http://www.w3.org/2000/svg" xmlns:xlink="http://www.w3.org/1999/xlink" x="0px" y="0px"
	 viewBox="0 0 32 32" style="enable-background:new 0 0 32 32;" xml:space="preserve">
<style type="text/css">
	.st0{fill:#212427;}
</style>
<g>
	<path class="st0" d="M0.1,29.4c0-0.3,0-0.6,0-0.9c0.2-1,0.8-1.6,1.5-2.3c3.3-3.3,6.6-6.6,9.9-9.9c0.1-0.1,0.2-0.1,0.3-0.2
		c-0.2-0.2-0.2-0.2-0.3-0.3C8,12.3,4.6,8.9,1.1,5.4c-0.8-0.8-1-1.7-0.8-2.7c0.2-1.2,1-2,2.1-2.3c1.1-0.3,2.2-0.1,3,0.8
		C8.8,4.6,12.3,8,15.7,11.4c0.1,0.1,0.2,0.3,0.3,0.4c0.2-0.2,0.2-0.2,0.3-0.3c2.4-2.4,4.8-4.8,7.2-7.2c1.1-1.1,2.2-2.2,3.3-3.3
		C28-0.1,29.9,0.1,31,1.3c1.1,1.2,1.1,3-0.1,4.2c-3.4,3.4-6.8,6.8-10.3,10.3c-0.1,0.1-0.2,0.1-0.4,0.2c0.2,0.2,0.3,0.2,0.4,0.3
		c3.3,3.3,6.6,6.6,10,9.9c0.7,0.7,1.3,1.3,1.5,2.3c0,0.3,0,0.5,0,0.8c0,0.1-0.1,0.2-0.1,0.3c-0.3,1.2-1,1.9-2.2,2.2
		c-1.2,0.3-2.3,0-3.2-0.9c-3.4-3.4-6.8-6.8-10.2-10.3c-0.1-0.1-0.1-0.2-0.2-0.3c0,0-0.1,0-0.1,0c-0.1,0.1-0.1,0.2-0.2,0.3
		C12.3,24,8.9,27.4,5.6,30.8c-0.8,0.8-1.7,1.1-2.8,1.1c-1.3-0.1-2.3-0.9-2.6-2.2C0.1,29.6,0.1,29.5,0.1,29.4z"/>
</g>
</svg>
