<?xml version="1.0" encoding="utf-8"?>
<!-- Generator: Adobe Illustrator 25.0.1, SVG Export Plug-In . SVG Version: 6.00 Build 0)  -->
<svg version="1.1" id="Laag_1" xmlns="http://www.w3.org/2000/svg" xmlns:xlink="http://www.w3.org/1999/xlink" x="0px" y="0px"
	 viewBox="0 0 32 32" style="enable-background:new 0 0 32 32;" xml:space="preserve">
<style type="text/css">
	.st0{fill:#519859;}
</style>
<g>
	<path class="st0" d="M23.2,0.1c0.6,0.1,1.1,0.4,1.4,0.9c0.6,0.8,0.6,2,0,2.7c-0.1,0.2-0.3,0.3-0.4,0.4c-3.9,3.9-7.8,7.8-11.7,11.7
		c-0.1,0.1-0.2,0.2-0.4,0.4c0.1,0.1,0.2,0.1,0.3,0.2c3.9,3.9,7.9,7.8,11.8,11.8c0.7,0.7,1,1.5,0.7,2.4c-0.2,0.7-0.7,1.2-1.5,1.5
		c-0.1,0-0.2,0.1-0.4,0.1c-0.2,0-0.4,0-0.6,0c-0.7-0.1-1.2-0.6-1.7-1c-4.4-4.4-8.8-8.8-13.2-13.2c-0.7-0.7-1-1.5-0.7-2.4
		c0.1-0.3,0.3-0.7,0.6-0.9c4.5-4.5,9.1-9.1,13.6-13.6c0.4-0.4,0.8-0.6,1.3-0.7C22.8,0.1,23,0.1,23.2,0.1z"/>
</g>
</svg>
