<?xml version="1.0" encoding="utf-8"?>
<!-- Generator: Adobe Illustrator 25.0.1, SVG Export Plug-In . SVG Version: 6.00 Build 0)  -->
<svg version="1.1" id="Laag_1" xmlns="http://www.w3.org/2000/svg" xmlns:xlink="http://www.w3.org/1999/xlink" x="0px" y="0px"
	 viewBox="0 0 32 32" style="enable-background:new 0 0 32 32;" xml:space="preserve">
<style type="text/css">
	.st0{fill:#212427;}
</style>
<g>
	<path class="st0" d="M0.1,31.1c0.2-0.7,0.4-1.4,0.6-2.1c0.5-1.9,0.9-3.7,1.4-5.6c0-0.2,0.2-0.4,0.3-0.5
		c5.8-5.8,11.5-11.6,17.3-17.3c0.1-0.1,0.1-0.1,0.2-0.1c2.3,2.3,4.6,4.6,6.8,6.8c0,0-0.1,0.1-0.2,0.2C20.7,18.3,15,24,9.2,29.8
		c-0.2,0.2-0.4,0.3-0.6,0.4c-2.5,0.6-5,1.3-7.5,1.9C1,32,1,32,0.9,32.1c-0.1,0-0.3,0-0.4,0c-0.2-0.2-0.3-0.3-0.5-0.5
		C0.1,31.4,0.1,31.3,0.1,31.1z"/>
	<path class="st0" d="M32.1,5.9c0,0.2-0.1,0.3-0.1,0.5c-0.2,0.4-0.4,0.9-0.7,1.2c-0.8,0.9-1.7,1.7-2.6,2.6c-2.2-2.2-4.5-4.5-6.8-6.8
		c0.8-0.9,1.7-1.8,2.6-2.6c1.2-1.1,3.2-1.1,4.5,0c0.8,0.7,1.6,1.6,2.4,2.4c0.5,0.5,0.7,1.1,0.8,1.8C32.1,5.4,32.1,5.6,32.1,5.9z"/>
</g>
</svg>
