<?xml version="1.0" encoding="utf-8"?>
	<svg version="1.1" id="Laag_1" xmlns="http://www.w3.org/2000/svg" xmlns:xlink="http://www.w3.org/1999/xlink" x="0px" y="0px"
		viewBox="0 0 32 32" style="enable-background:new 0 0 32 32;" xml:space="preserve" fill="current-color">
	<g>
		<path class="st0" d="M16,29.5c-4.2,0-8.4,0-12.6,0c-0.7,0-0.9-0.2-0.8-0.9c0.1-5.6,4-10.4,9.5-11.6c0.6-0.1,1.3-0.3,2-0.3
			c2.1,0,4.2-0.2,6.2,0.3c4.6,1.1,8.2,5,9,9.7c0.1,0.6,0.1,1.3,0.2,1.9c0,0.6-0.2,0.9-0.8,0.9C24.4,29.5,20.2,29.5,16,29.5z"/>
		<path class="st0" d="M9.7,9c0-3.6,2.9-6.4,6.4-6.4c3.5,0,6.4,2.9,6.4,6.4c0,3.5-2.9,6.4-6.4,6.4C12.5,15.4,9.7,12.5,9.7,9z"/>
	</g>
</svg>
