<?xml version="1.0" encoding="UTF-8" standalone="no"?>
<!-- Generator: Adobe Illustrator 25.0.1, SVG Export Plug-In . SVG Version: 6.00 Build 0)  -->

<svg
   version="1.1"
   id="Laag_1"
   x="0px"
   y="0px"
   viewBox="0 0 31.9 31.799999"
   xml:space="preserve"
   sodipodi:docname="a6a4a410281af6ec3d6c1fe1488bbb66.svg"
   width="31.9"
   height="31.799999"
   xmlns:inkscape="http://www.inkscape.org/namespaces/inkscape"
   xmlns:sodipodi="http://sodipodi.sourceforge.net/DTD/sodipodi-0.dtd"
   xmlns="http://www.w3.org/2000/svg"
   xmlns:svg="http://www.w3.org/2000/svg"><defs
   id="defs11" /><sodipodi:namedview
   id="namedview9"
   pagecolor="#ffffff"
   bordercolor="#666666"
   borderopacity="1.0"
   inkscape:pageshadow="2"
   inkscape:pageopacity="0.0"
   inkscape:pagecheckerboard="0" />
<style
   type="text/css"
   id="style2">
	.st0{fill:#FFFFFF;}
</style>
<g
   id="g6"
   transform="translate(-0.2,-0.3)">
	<path
   class="st0"
   d="m 16.4,32.1 c -0.2,0 -0.4,0 -0.6,0 0,0 -0.1,0 -0.1,0 -0.7,-0.1 -1.3,-0.5 -1.8,-1 -0.5,-0.6 -0.6,-1.3 -0.6,-2 0,-3.1 0,-6.1 0,-9.2 0,-0.7 -0.2,-0.8 -0.8,-0.8 -3.1,0 -6.1,0 -9.2,0 -1,0 -1.9,-0.3 -2.5,-1.2 C 0.5,17.5 0.4,17 0.2,16.5 c 0,-0.2 0,-0.4 0,-0.6 0,0 0,-0.1 0,-0.1 0.1,-0.7 0.4,-1.3 1,-1.7 0.6,-0.5 1.3,-0.7 2.1,-0.7 3.1,0 6.1,0 9.2,0 0.7,0 0.8,-0.2 0.8,-0.8 0,-3.1 0,-6.1 0,-9.2 0,-1 0.3,-1.9 1.2,-2.5 0.4,-0.3 0.9,-0.4 1.4,-0.6 0.2,0 0.4,0 0.6,0 0,0 0.1,0 0.1,0 0.7,0.1 1.3,0.5 1.8,1 0.5,0.6 0.6,1.3 0.6,2 0,3.1 0,6.1 0,9.2 0,0.7 0.2,0.8 0.8,0.8 3.1,0 6.1,0 9.2,0 1,0 1.9,0.3 2.5,1.2 0.3,0.4 0.4,0.9 0.6,1.4 0,0.2 0,0.4 0,0.6 0,0 0,0.1 0,0.1 -0.1,0.7 -0.4,1.3 -1,1.7 -0.6,0.5 -1.3,0.7 -2.1,0.7 -3.1,0 -6.1,0 -9.2,0 -0.7,0 -0.8,0.2 -0.8,0.8 0,3.1 0,6.1 0,9.2 0,1 -0.3,1.9 -1.2,2.5 -0.5,0.3 -1,0.4 -1.4,0.6 z"
   id="path4" />
</g>
</svg>
