<?xml version="1.0" encoding="utf-8"?>
<!-- Generator: Adobe Illustrator 25.0.1, SVG Export Plug-In . SVG Version: 6.00 Build 0)  -->
<svg version="1.1" id="Laag_1" xmlns="http://www.w3.org/2000/svg" xmlns:xlink="http://www.w3.org/1999/xlink" x="0px" y="0px"
	 viewBox="0 0 32 32" style="enable-background:new 0 0 32 32;" xml:space="preserve">
<style type="text/css">
	.st0{fill:#212427;}
</style>
<g>
	<path class="st0" d="M20,8.1c-2.7,0-5.3,0-8,0c-1.4,0-2.4-1.4-1.9-2.7c0.3-0.8,1-1.3,1.9-1.3c2.8,0,5.7,0,8.5,0c2.5,0,5,0,7.4,0
		c0.8,0,1.5,0.4,1.8,1.2c0.3,0.8,0.2,1.5-0.3,2.1c-0.4,0.5-1,0.7-1.6,0.7C25.3,8.1,22.7,8.1,20,8.1z"/>
	<path class="st0" d="M20.1,18.1c-2.7,0-5.3,0-8,0c-1.2,0-2-0.9-2-2c0-1,0.9-1.9,1.9-1.9c0.3,0,0.6,0,0.9,0c5,0,10.1,0,15.1,0
		c1.2,0,2,0.8,2.1,1.9c0,1.2-0.9,2.1-2,2.1C25.4,18.1,22.7,18.1,20.1,18.1z"/>
	<path class="st0" d="M20,28.1c-2.7,0-5.3,0-8,0c-1.4,0-2.4-1.4-1.9-2.7c0.3-0.8,1-1.3,1.9-1.3c3,0,6,0,8.9,0c2.3,0,4.7,0,7,0
		c0.8,0,1.5,0.4,1.8,1.2c0.4,0.8,0.2,1.5-0.3,2.1c-0.4,0.5-1,0.7-1.6,0.7C25.3,28.1,22.7,28.1,20,28.1z"/>
	<path class="st0" d="M6.1,6.1c0,1.1-0.9,2-2,2c-1.1,0-2-0.9-2-2c0-1.1,0.9-2,2-2C5.2,4.1,6.1,5,6.1,6.1z"/>
	<path class="st0" d="M6.1,16.1c0,1.1-0.9,2-2,2c-1.1,0-2-0.9-2-2c0-1.1,0.9-2,2-2C5.2,14.1,6.1,15,6.1,16.1z"/>
	<path class="st0" d="M6.1,26.1c0,1.1-0.9,2-2,2c-1.1,0-2-0.9-2-2c0-1.1,0.9-2,2-2C5.2,24.1,6.1,25,6.1,26.1z"/>
</g>
</svg>
